<svg width="25" height="26" viewBox="0 0 25 26" fill="none" xmlns="http://www.w3.org/2000/svg">
<g clip-path="url(#clip0_307_456)">
<path d="M0 2.41797V23.5821H24.1876V2.41797H0ZM14.1562 18.2155C13.7999 18.3572 12.3637 18.4989 11.4567 17.5446C10.96 17.0439 10.0907 15.9715 9.17832 14.5401C8.6978 14.5401 8.38466 14.5401 8.02293 14.5117V16.7037C8.02293 17.8139 8.34687 17.7053 9.41587 17.8328V18.2155C9.04334 18.2013 8.1687 18.1777 7.49382 18.1777C6.78655 18.1777 6.08468 18.206 5.67976 18.2155V17.8328C6.5166 17.6958 6.86754 17.7714 6.86754 16.7037V11.5355C6.86754 10.4679 6.522 10.5435 5.67976 10.4065V10.0238C7.0727 10.0711 8.54663 9.99548 9.50766 9.99548C11.2191 9.99548 12.5257 10.6758 12.5257 12.1497C12.5257 13.1465 11.6241 14.1433 10.4093 14.3936C11.1436 15.5369 12.029 16.5479 12.6877 17.1762C13.0764 17.5446 13.6163 17.8706 14.1562 17.8706V18.2155ZM15.3926 11.8379C14.1346 11.8379 13.6541 11.0962 13.6541 10.3167V8.79555C13.6541 8.2192 14.1292 7.35941 15.4898 7.35941C16.8503 7.35941 17.1311 8.20503 17.1311 8.20503L16.5534 8.54517C16.5534 8.54517 16.2564 7.95465 15.4898 7.95465C15.0632 7.95465 14.4262 8.29951 14.4262 8.88531V10.1514C14.4262 10.7844 14.7825 11.2521 15.3926 11.2521C16.1538 11.2521 16.5534 10.7372 16.5534 9.98603H15.5869V9.48055H17.2282C17.2282 10.449 17.482 11.8379 15.3926 11.8379ZM9.10273 13.9496C8.59522 13.9496 8.36846 13.9354 8.02293 13.9118V10.6191C8.36846 10.5907 8.83278 10.5907 9.23771 10.5907C10.4957 10.5907 11.2461 11.1671 11.2461 12.2205C11.2461 13.2551 10.4363 13.9496 9.10273 13.9496Z" fill="white"/>
</g>
<defs>
<clipPath id="clip0_307_456">
<rect width="24.1876" height="24.1876" fill="white" transform="translate(0 0.90625)"/>
</clipPath>
</defs>
</svg>
