<svg width="25" height="24" viewBox="0 0 25 24" fill="none" xmlns="http://www.w3.org/2000/svg">
<path fill-rule="evenodd" clip-rule="evenodd" d="M4.6875 3.24219C3.85907 3.24219 3.1875 3.91376 3.1875 4.74219V19.7422C3.1875 20.5706 3.85907 21.2422 4.6875 21.2422H19.6875C20.5159 21.2422 21.1875 20.5706 21.1875 19.7422V4.74219C21.1875 3.91376 20.5159 3.24219 19.6875 3.24219H4.6875ZM8.70826 7.24491C8.71389 8.20116 7.99811 8.79038 7.14873 8.78616C6.34857 8.78194 5.65107 8.14491 5.65529 7.24632C5.65951 6.40116 6.32748 5.72194 7.19514 5.74163C8.07545 5.76132 8.71389 6.40679 8.70826 7.24491ZM12.4672 10.0039H9.94721H9.9458V18.5638H12.6092V18.3641C12.6092 17.9842 12.6089 17.6042 12.6086 17.2241C12.6078 16.2103 12.6069 15.1954 12.6121 14.1819C12.6135 13.9358 12.6247 13.6799 12.688 13.445C12.9256 12.5675 13.7146 12.0008 14.5949 12.1401C15.1602 12.2286 15.5342 12.5563 15.6917 13.0893C15.7888 13.4225 15.8324 13.7811 15.8366 14.1285C15.848 15.1761 15.8464 16.2237 15.8448 17.2714C15.8442 17.6412 15.8436 18.0112 15.8436 18.381V18.5624H18.5155V18.3571C18.5155 17.9051 18.5153 17.4532 18.515 17.0013C18.5145 15.8718 18.5139 14.7423 18.5169 13.6124C18.5183 13.1019 18.4635 12.5985 18.3383 12.1049C18.1513 11.3708 17.7646 10.7633 17.136 10.3246C16.6902 10.0124 16.2008 9.81129 15.6538 9.78879C15.5915 9.7862 15.5287 9.78281 15.4656 9.7794C15.1859 9.76428 14.9016 9.74892 14.6342 9.80285C13.8692 9.95613 13.1971 10.3063 12.6894 10.9236C12.6304 10.9944 12.5727 11.0663 12.4866 11.1736L12.4672 11.1979V10.0039ZM5.86914 18.5666H8.51992V10.0095H5.86914V18.5666Z" fill="white"/>
</svg>
